PathFileType	4	(X/Y/Z)	D:\TRACE\spot_10-12-23\spot_body_motion_3_3-v60.trc
DataRate	CameraRate	NumFrames	NumMarkers	Units	OrigDataRate	OrigDataStartFrame	OrigNumFrames
100.00	100.00	      35	9	mm	100.00	2626	      7000
Frame#	Time	front left toe			Front right toe			aft left toe			aft right toe			Arm			FL body			FR body			AL Body			AR Body			
		X1	Y1	Z1	X2	Y2	Z2	X3	Y3	Z3	X4	Y4	Z4	X5	Y5	Z5	X6	Y6	Z6	X7	Y7	Z7	X8	Y8	Z8	X9	Y9	Z9	

2626	26.250	-272.87778	18.49807	80.80386	264.07660	15.74131	120.49745	-206.43925	-31.55891	570.38849	323.62778	-31.37020	607.38757	-8.75128	820.24231	-34.44074	-97.64745	557.81189	-36.74037	55.23949	561.19763	-41.63205	-70.73528	485.01340	843.85388	79.51291	482.22891	840.49207	
2627	26.260	-273.19336	18.44847	80.83249	263.85345	15.82287	120.63454	-206.67776	-31.49473	570.39038	323.58789	-31.23501	607.53015	-8.45994	820.21301	-34.05556	-97.51133	557.69952	-36.28547	55.27492	561.05286	-41.27976	-70.71792	485.31223	844.23553	80.01283	482.52887	841.28943	
2628	26.270	-274.12827	18.68526	80.90116	263.65814	15.88512	120.72407	-206.96774	-31.42198	570.41748	324.41302	-30.67937	607.54376	-8.18514	820.13409	-33.71447	-97.34357	557.68292	-35.80393	55.46222	561.01459	-41.09084	-70.64644	485.76352	844.59259	80.04262	482.94461	841.51550	
2629	26.280	-274.47650	18.40300	80.93835	263.27841	16.38469	120.65870	-207.21953	-31.17202	570.43250	324.20740	-30.77731	607.52997	-8.08935	820.11609	-33.47599	-97.24789	557.81183	-35.50307	55.47214	560.83777	-40.74785	-70.54156	486.41391	845.22864	79.86922	483.47189	842.69012	
2630	26.290	-274.76257	18.04346	80.82565	260.76828	22.44930	122.29723	-207.53053	-30.76086	570.59003	323.31891	-31.71217	608.67249	-7.66360	820.06140	-33.26777	-97.41813	557.89124	-35.13574	55.51061	560.40814	-40.31041	-70.30523	486.44324	845.39581	80.26918	483.67917	842.98834	
2631	26.300	-275.05786	18.05994	81.01482	257.93451	34.34975	125.72272	-207.84221	-30.68386	570.59894	323.08218	-31.42564	607.40771	-6.54347	819.86853	-33.02905	-97.52608	557.97034	-34.90389	55.54014	560.23157	-40.16285	-70.32620	486.97427	845.92853	80.90916	483.42136	843.26013	
2632	26.310	-275.38559	18.18618	80.92075	258.25955	46.67625	128.08421	-208.24268	-30.54722	570.65106	322.06039	-31.62287	607.81580	-5.92787	819.58344	-32.91972	-97.45757	557.81311	-34.70361	55.71020	559.89929	-39.78753	-70.40890	487.37424	846.08600	80.54459	483.87527	843.81219	
2633	26.320	-275.10919	18.00519	80.71552	261.79651	59.48452	125.90247	-208.58434	-30.40334	570.57574	321.01645	-31.87819	607.85272	-5.76038	819.29163	-32.85147	-96.99876	557.40887	-34.37113	56.03183	559.55511	-39.42444	-70.18470	487.18802	846.39673	81.06060	483.70493	844.09460	
2634	26.330	-275.21088	18.13634	80.55111	265.14713	71.86359	120.59232	-209.06635	-30.27104	570.33203	321.33459	-31.49598	608.04291	-5.88178	819.00769	-32.76737	-96.61014	557.18445	-34.08535	56.38572	559.40039	-39.06836	-70.43937	487.32147	846.55737	80.43340	483.76859	843.85095	
2635	26.340	-275.27664	18.37573	80.36732	266.43719	83.11770	115.05118	-209.48610	-30.35202	570.33386	320.20947	-32.09740	607.74194	-5.87867	818.91266	-32.56128	-95.98192	557.16626	-33.78296	56.46650	559.77240	-38.79036	-70.64773	487.34167	846.80963	80.18192	484.09869	844.30786	
2636	26.350	-275.41611	18.56984	80.24278	265.18161	93.62029	111.55122	-209.77353	-30.44407	570.29669	321.04440	-31.38059	608.12390	-5.69733	819.07397	-32.32496	-95.65966	557.33246	-33.75792	57.50659	559.62488	-38.14888	-70.60700	487.29330	847.10614	80.63394	484.31607	844.82434	
2637	26.360	-275.72943	18.63272	80.18217	264.04013	102.45544	110.94800	-210.07448	-30.38047	570.31079	320.77646	-31.50838	608.04492	-5.29620	819.35358	-31.92326	-95.70183	557.67297	-33.50235	57.53357	559.73608	-38.01563	-70.72987	487.40146	847.52869	81.80004	484.71616	846.58704	
2638	26.370	-276.51517	18.64080	80.30911	264.50385	110.99660	111.31680	-210.33138	-30.26036	570.36176	319.99603	-31.97290	607.78827	-4.38333	819.54388	-31.51636	-95.77445	557.77985	-33.14637	57.41685	559.73547	-37.99709	-70.45182	487.62509	847.78094	81.91621	484.59418	846.71307	
2639	26.380	-277.13702	18.70571	80.48553	266.52405	121.01189	110.84685	-210.64847	-30.24434	570.64996	319.56528	-32.01790	607.74945	-4.03158	819.45667	-31.31113	-95.83587	557.71899	-32.80430	57.39927	559.48151	-37.74632	-70.32584	487.81723	847.93280	82.02882	484.51123	846.78552	
2640	26.390	-277.37628	18.73892	80.52984	269.40930	130.10110	109.08786	-210.92940	-30.12240	570.69214	319.07629	-31.94574	607.73657	-3.92630	819.14081	-31.15029	-95.83874	557.59149	-32.58698	57.32273	559.28540	-37.49255	-70.16290	488.39124	848.35400	80.97328	484.01282	845.51941	
2641	26.400	-277.66504	18.86574	80.51576	272.66367	137.79004	106.43546	-211.18007	-30.08464	570.66077	318.53793	-32.38279	607.78693	-4.20386	818.93384	-31.06223	-95.81055	557.40033	-32.39674	57.27555	559.14673	-37.19426	-70.06960	488.44659	848.46655	80.93234	484.23444	845.72961	
2642	26.410	-277.85532	18.85315	80.53263	275.59180	143.92317	103.35592	-211.58977	-30.04354	570.59186	318.55505	-32.13471	607.76501	-4.72391	818.81995	-30.95914	-95.73592	557.25012	-32.07823	57.21079	559.12726	-36.95925	-70.19076	488.56912	848.70197	80.77708	484.59512	845.97870	
2643	26.420	-278.22836	18.82912	80.45960	277.12949	145.56006	101.07375	-211.80186	-30.16065	570.59589	318.34805	-32.03821	607.80713	-4.94923	818.79102	-30.71833	-95.71313	557.19592	-31.75863	57.17361	559.20306	-36.51684	-69.98495	488.70255	849.11523	80.90164	484.64157	846.22882	
2644	26.430	-278.43814	18.76255	80.50320	277.68973	145.18231	99.60170	-211.95702	-30.06776	570.53217	318.04642	-32.00063	607.81085	-5.09493	818.90649	-30.50634	-95.82547	557.17639	-31.53337	56.93214	559.09558	-36.44639	-69.78613	488.94269	849.52307	81.34575	484.90918	847.15680	
2645	26.440	-278.70425	18.68525	80.57063	278.72751	143.64304	97.84174	-212.32350	-29.85796	570.48669	318.37045	-31.15643	608.47845	-4.94394	819.01550	-30.34831	-96.06733	557.12494	-31.25133	56.68964	559.00531	-36.37575	-69.69526	489.10870	849.72388	81.46680	485.02032	847.29321	
2646	26.450	-279.15393	18.70167	80.68343	280.16812	143.07584	95.43104	-212.72993	-29.49523	570.32623	318.04855	-31.08631	608.48309	-4.61911	818.92755	-30.14684	-96.45882	557.25006	-30.97761	56.56270	558.72375	-36.44821	-69.76216	489.19452	849.86047	81.26654	484.94894	846.97681	
2647	26.460	-279.56668	18.78146	80.72813	281.43561	143.54967	92.82225	-213.18852	-29.23173	570.28320	317.09589	-31.73524	607.68793	-4.46482	818.74829	-30.06058	-96.71909	557.33636	-30.79077	56.42070	558.65057	-36.29654	-69.64079	489.44312	850.02045	81.62175	485.17157	847.71545	
2648	26.470	-279.97516	18.84915	80.70248	283.86526	144.54269	90.78457	-213.45314	-29.05759	570.39801	316.70499	-31.71513	607.73505	-4.67381	818.60498	-29.99166	-96.86539	557.23596	-30.69835	56.47710	558.50604	-35.82676	-69.61354	489.59006	850.19806	81.61971	485.24368	847.95477	
2649	26.480	-280.24493	18.89471	80.60969	285.94418	145.36893	88.77083	-213.70914	-29.01463	570.37665	316.24255	-31.70219	607.73010	-4.99770	818.43390	-29.96593	-96.74843	557.06769	-30.53159	56.23216	558.36517	-35.60795	-69.81692	489.61688	850.43079	81.21667	485.58279	848.19922	
2650	26.490	-280.49982	18.92508	80.59260	288.38550	145.80357	86.71011	-213.96335	-28.99064	570.38440	316.08044	-31.69912	607.71790	-5.24880	818.29083	-29.88528	-96.84153	556.93750	-30.39093	56.56049	558.26154	-35.43416	-69.91814	489.65878	850.65912	81.63120	485.41791	848.26318	
2651	26.500	-280.76224	18.94126	80.56898	290.15735	145.41913	85.34879	-214.18266	-28.99229	570.40912	315.82346	-31.46778	607.68341	-5.33900	818.29236	-29.68331	-96.75925	556.83496	-30.23951	56.63153	558.31708	-34.91583	-69.84111	489.31332	850.78467	81.51402	485.57236	848.43304	
2652	26.510	-281.06192	18.99891	80.46898	290.49228	143.48216	82.93250	-214.52339	-29.06163	570.36914	315.41791	-31.21694	607.64685	-5.42212	818.43353	-29.46877	-96.68640	556.82782	-30.07983	56.58811	558.47205	-34.81528	-70.04008	489.32727	850.87250	81.26638	485.76297	848.58997	
2653	26.520	-281.27267	19.06915	80.37406	292.02594	137.78857	80.09991	-214.81590	-29.11721	570.34033	315.20203	-31.32496	607.77319	-5.55533	818.52533	-29.28346	-96.56794	556.88867	-29.87060	56.62903	558.71936	-34.62328	-70.17507	489.42966	851.09094	80.89030	485.85654	848.78479	
2654	26.530	-281.42950	19.11781	80.33044	294.56186	131.21988	77.41612	-215.00800	-29.11682	570.36377	315.76596	-30.48201	608.53601	-5.79740	818.68182	-29.09483	-96.50883	556.92499	-29.65966	56.57640	558.88940	-34.47556	-70.54993	489.64670	851.11145	80.70103	485.92154	848.88092	
2655	26.540	-281.41815	19.09823	80.31697	295.83420	122.01080	75.43974	-215.26608	-29.05919	570.38623	315.03195	-31.07701	607.93811	-5.86598	818.81635	-28.88394	-96.50021	556.97253	-29.51851	56.44335	558.98535	-34.50491	-69.91399	489.27682	851.13873	80.29253	486.04221	848.66779	
2656	26.550	-281.87183	19.18429	80.35040	296.86484	110.82793	74.13355	-215.66658	-28.81691	570.37225	314.61469	-30.69601	607.80719	-6.06697	818.97876	-28.71968	-96.61093	557.00525	-29.40740	56.18633	559.16125	-34.50338	-70.64375	489.74451	851.43201	80.13412	486.54657	848.87286	
2657	26.560	-282.25461	19.09631	80.37888	298.69061	99.64361	72.92048	-215.99744	-28.53529	570.28699	314.23242	-30.63191	607.76904	-6.36272	818.97699	-28.65604	-96.77412	557.07977	-29.19501	56.04026	559.22174	-34.38652	-70.45348	490.25467	851.85016	80.47936	486.66870	849.02209	
2658	26.570	-282.54907	19.04530	80.39380	298.23575	87.45937	72.32607	-216.21552	-28.29298	570.28394	314.03006	-30.52824	607.72784	-6.69574	818.92865	-28.58529	-97.01640	557.12042	-29.06612	54.74699	560.35864	-35.30103	-70.22233	490.49899	851.91510	81.88254	487.41663	850.75708	
2659	26.580	-282.78613	18.99056	80.33733	298.72256	77.09484	71.69099	-216.31854	-28.12762	570.19519	313.85330	-30.25671	607.71564	-6.87594	818.87030	-28.53150	-97.17918	557.07452	-28.85341	54.86457	560.05164	-35.24698	-70.30042	490.72705	851.95728	82.03606	487.52679	850.81757	
2660	26.590	-282.98541	19.02452	80.27377	299.83429	66.86005	71.15092	-216.41061	-27.96541	570.25879	313.63403	-30.07966	607.64264	-7.05182	818.79358	-28.53339	-97.31015	556.99994	-28.76272	54.74776	560.01465	-35.19024	-70.45292	491.12506	852.16547	82.62954	487.80112	851.03333	
